<svg xmlns="http://www.w3.org/2000/svg" viewBox="0 0 32 32" width="24" height="24"><path d="M27.138,8.591c-0.248-0.777-0.892-1.379-1.681-1.586C24.638,6.791,23.819,6.607,23,6.448v0.988c0,0.552-0.447,1-1,1	s-1-0.448-1-1V5c0-0.552-0.447-1-1-1s-1,0.448-1,1v0.9c-2-0.164-4-0.16-6,0.006v1.53c0,0.552-0.447,1-1,1s-1-0.448-1-1V5	c0-0.552-0.447-1-1-1S9,4.448,9,5v1.456c-0.819,0.157-1.638,0.335-2.457,0.55C5.754,7.212,5.11,7.814,4.862,8.591	c-1.792,5.606-1.792,11.212,0,16.817c0.248,0.777,0.892,1.379,1.681,1.586c6.305,1.653,12.61,1.653,18.915,0	c0.789-0.207,1.432-0.809,1.681-1.586C28.93,19.803,28.93,14.197,27.138,8.591z M10,23c-0.552,0-1-0.448-1-1c0-0.552,0.448-1,1-1	s1,0.448,1,1C11,22.552,10.552,23,10,23z M10,19c-0.552,0-1-0.448-1-1c0-0.552,0.448-1,1-1s1,0.448,1,1C11,18.552,10.552,19,10,19z M14,23c-0.552,0-1-0.448-1-1c0-0.552,0.448-1,1-1s1,0.448,1,1C15,22.552,14.552,23,14,23z M14,19c-0.552,0-1-0.448-1-1	c0-0.552,0.448-1,1-1s1,0.448,1,1C15,18.552,14.552,19,14,19z M14,15c-0.552,0-1-0.448-1-1c0-0.552,0.448-1,1-1s1,0.448,1,1	C15,14.552,14.552,15,14,15z M18,23.5c-0.828,0-1.5-0.672-1.5-1.5c0-0.828,0.672-1.5,1.5-1.5s1.5,0.672,1.5,1.5	C19.5,22.828,18.828,23.5,18,23.5z M18,19c-0.552,0-1-0.448-1-1c0-0.552,0.448-1,1-1s1,0.448,1,1C19,18.552,18.552,19,18,19z M18,15	c-0.552,0-1-0.448-1-1c0-0.552,0.448-1,1-1s1,0.448,1,1C19,14.552,18.552,15,18,15z M22,19c-0.552,0-1-0.448-1-1	c0-0.552,0.448-1,1-1s1,0.448,1,1C23,18.552,22.552,19,22,19z M22,15c-0.552,0-1-0.448-1-1c0-0.552,0.448-1,1-1s1,0.448,1,1	C23,14.552,22.552,15,22,15z" fill="white"/></svg>
