<svg width="22" height="23" viewBox="0 0 22 23" fill="none" xmlns="http://www.w3.org/2000/svg">
<g clip-path="url(#clip0_2466_14618)">
<path d="M3.62871 0.519386C5.032 -0.665638 6.1404 0.344114 7.15508 1.87974L7.76348 2.81236C8.77441 4.35486 9.30271 5.85146 7.90313 7.03989L7.0584 7.75864C6.43951 8.27402 3.8091 9.04549 8.23125 13.9959C12.6534 18.9569 13.7976 16.5242 14.4129 16.0018L15.2547 15.286C16.6614 14.0978 18.1112 14.8203 19.5359 16.0086L20.3924 16.7274C21.8208 17.9159 22.692 19.1254 21.2889 20.3104L20.5291 20.9588C19.9965 21.4953 18.2914 22.9682 15.4744 22.9999C12.0851 23.0349 8.5011 20.9732 4.84551 16.868C1.1862 12.766 -0.415702 9.02466 0.0916028 5.7606C0.512588 3.03995 2.24744 1.60607 2.86992 1.16782L3.62871 0.519386Z" fill="white"/>
</g>
<defs>
<clipPath id="clip0_2466_14618">
<rect width="22" height="23" fill="white"/>
</clipPath>
</defs>
</svg>
