<svg width="24" height="24" viewBox="0 0 24 24" fill="none" xmlns="http://www.w3.org/2000/svg">
<g clip-path="url(#clip0_2466_17682)">
<path d="M23.2103 7.67236C23.0265 7.20423 22.6196 6.85161 22.12 6.73086C20.7349 6.39486 19.3183 6.17611 17.8798 6.04923C17.7065 5.12873 17.4431 4.20911 17.0853 3.29736C16.8963 2.81523 16.4824 2.46173 15.9758 2.35148C11.074 1.27436 6.33063 1.27698 1.87863 2.35586C1.37988 2.47748 0.973009 2.82923 0.790134 3.29648C0.0603837 5.15411 -0.287866 7.04323 -0.246741 8.89298C-0.246741 13.429 1.18826 16.1826 1.95913 17.6622C2.09738 17.9265 2.21201 18.1444 2.28638 18.3202C2.38263 18.5495 2.57251 18.7271 2.80788 18.8085C2.89976 18.8391 2.99601 18.8557 3.09226 18.8557C3.23926 18.8557 3.38538 18.819 3.51663 18.7455C3.58663 18.707 4.95601 17.9352 6.22913 16.579C6.39888 17.3437 6.61676 18.1067 6.91426 18.8645C7.09801 19.3326 7.50488 19.6844 8.00363 19.8051C11.3593 20.6189 14.4025 20.814 17.2821 20.4001C18.6655 22.1011 20.4024 23.0776 20.482 23.1205C20.6133 23.194 20.7594 23.2307 20.9064 23.2307C21.0026 23.2307 21.0998 23.2141 21.1916 23.1826C21.427 23.1012 21.616 22.9236 21.7131 22.6944C21.7875 22.5185 21.9021 22.3006 22.0404 22.0364C22.8113 20.5567 24.2463 17.8022 24.2463 13.2864C24.2883 11.4182 23.94 9.52911 23.2103 7.67236ZM20.5634 21.0844C19.9404 20.6329 19.0575 19.8979 18.3698 18.9432C18.2035 18.7122 17.9384 18.5801 17.6593 18.5801C17.6103 18.5801 17.5613 18.5845 17.5123 18.5932C14.7403 19.0649 11.7933 18.9135 8.50413 18.1269C8.25388 17.475 8.07013 16.8179 7.92663 16.1599C10.4493 16.3699 13.1058 16.1319 15.995 15.431C16.4929 15.3094 16.8998 14.9585 17.0835 14.4904C17.8133 12.6327 18.1606 10.7436 18.1204 8.91311C18.1283 8.55086 18.109 8.18686 18.088 7.82373C19.2841 7.94536 20.4636 8.13523 21.6186 8.41086C22.2364 10.02 22.5313 11.6466 22.4954 13.2689C22.4963 17.2317 21.2783 19.7071 20.5634 21.0844ZM8.76838 12.0194C7.62738 12.0194 6.67276 11.8216 5.63676 11.5285C5.17213 11.3972 4.90176 10.9134 5.03388 10.4487C5.16426 9.98323 5.65163 9.70936 6.11363 9.84586C7.20038 10.1539 8.11826 10.3262 9.31963 10.2519C9.78601 10.2317 10.2174 10.5879 10.2489 11.07C10.2804 11.5521 9.91288 11.9677 9.43076 11.9992C9.20238 12.0132 8.98188 12.0194 8.76838 12.0194ZM8.91101 8.46073C7.77701 8.46073 6.65263 8.31723 5.63676 8.02936C5.17213 7.89811 4.90176 7.41423 5.03388 6.94961C5.16426 6.48411 5.65163 6.21198 6.11363 6.34673C7.84701 6.83848 9.96276 6.83761 11.7705 6.34411C12.2325 6.21723 12.7173 6.49111 12.845 6.95836C12.9728 7.42386 12.6971 7.90511 12.2308 8.03286C11.1808 8.31811 10.0415 8.46073 8.91101 8.46073Z" fill="white"/>
</g>
<defs>
<clipPath id="clip0_2466_17682">
<rect width="24" height="24" fill="white"/>
</clipPath>
</defs>
</svg>
