<svg width="24" height="24" viewBox="0 0 24 24" fill="none" xmlns="http://www.w3.org/2000/svg">
<path d="M20.7477 16.7032C22.2185 13.2045 22.0032 9.15075 20.1537 6.29025C18.9627 4.44675 16.5807 2.25 11.9997 2.25C7.41873 2.25 5.03673 4.44675 3.84573 6.29025C1.99623 9.1515 1.78098 13.2045 3.25173 16.704C3.68223 18.0577 4.60323 19.2997 5.62323 19.881C6.05523 20.1278 6.52323 20.2448 6.98898 20.2448C8.01423 20.2448 9.02823 19.677 9.61773 18.6667C9.66423 18.5872 9.69573 18.4988 9.70998 18.408C10.0017 16.5968 8.97048 13.5352 7.66698 12.342C7.59273 12.2737 7.50573 12.222 7.41123 12.1882C6.25773 11.778 4.73748 12.057 3.82998 12.9465C3.62748 10.8285 4.05198 8.733 5.10498 7.104C6.52323 4.9095 8.90748 3.75 11.9997 3.75C15.092 3.75 17.4762 4.9095 18.8937 7.104C19.9467 8.73375 20.3712 10.8293 20.1687 12.9473C19.2605 12.0578 17.7402 11.7788 16.5875 12.189C16.493 12.2228 16.406 12.2745 16.3317 12.3428C15.029 13.536 13.9977 16.5975 14.2887 18.4088C14.3037 18.4995 14.3352 18.5872 14.381 18.6675C14.7275 19.2622 15.2232 19.698 15.7797 19.9605C14.6052 20.466 13.46 20.3655 12.4332 19.638C12.0942 19.3988 11.627 19.479 11.387 19.8165C11.1477 20.1548 11.228 20.6227 11.5655 20.8627C12.425 21.4718 13.361 21.771 14.321 21.771C15.8742 21.771 17.4927 20.9872 18.9665 19.461C19.5777 18.81 20.3427 17.6812 20.7477 16.7032Z" fill="white"/>
</svg>
