<svg xmlns="http://www.w3.org/2000/svg" viewBox="0 0 32 32" width="32px" height="32px" fill="white"><path d="M31.082,8.616c-0.088-0.38-0.389-0.673-0.77-0.753c-0.774-0.161-1.558-0.284-2.339-0.401	c0.084-1.419-0.203-2.839-0.889-4.248c-0.121-0.248-0.339-0.436-0.602-0.518c-2.975-0.926-5.99-0.926-8.965,0	c-0.263,0.082-0.48,0.27-0.602,0.518c-0.684,1.406-0.971,2.822-0.89,4.237c-0.777,0.116-1.56,0.25-2.338,0.411	c-0.382,0.08-0.683,0.373-0.771,0.753c-1.219,5.231-1.219,10.536,0,15.768c0.088,0.38,0.389,0.673,0.771,0.753	c0.769,0.16,1.54,0.292,2.312,0.407V26c0,1.626-2.29,3-5,3s-5-1.374-5-3c0-0.016-0.008-0.03-0.009-0.046	c1.082-0.091,2.161-0.465,3.213-1.16c0.259-0.171,0.424-0.452,0.446-0.762c0.464-6.325,0.464-12.739,0-19.064	c-0.022-0.31-0.188-0.591-0.446-0.762c-2.424-1.6-4.984-1.6-7.408,0C1.537,4.377,1.372,4.658,1.35,4.968	c-0.464,6.325-0.464,12.739,0,19.064c0.022,0.31,0.188,0.591,0.446,0.762c0.738,0.487,1.49,0.808,2.246,0.998	C4.027,25.861,4,25.926,4,26c0,2.804,3.075,5,7,5s7-2.196,7-5v-0.206c1.332,0.132,2.666,0.202,4,0.202	c2.777,0,5.555-0.286,8.312-0.859c0.382-0.08,0.683-0.373,0.771-0.753C32.301,19.152,32.301,13.848,31.082,8.616z M18.536,4.482	c2.301-0.639,4.627-0.639,6.928,0c0.716,1.69,0.716,3.345,0,5.035c-2.301,0.639-4.627,0.639-6.928,0	C17.82,7.827,17.82,6.173,18.536,4.482z M18,22c-0.552,0-1-0.448-1-1s0.448-1,1-1s1,0.448,1,1S18.552,22,18,22z M18,19	c-0.552,0-1-0.448-1-1s0.448-1,1-1s1,0.448,1,1S18.552,19,18,19z M18,16c-0.552,0-1-0.448-1-1s0.448-1,1-1s1,0.448,1,1	S18.552,16,18,16z M22,22c-0.552,0-1-0.448-1-1s0.448-1,1-1s1,0.448,1,1S22.552,22,22,22z M22,19c-0.552,0-1-0.448-1-1s0.448-1,1-1	s1,0.448,1,1S22.552,19,22,19z M22,16c-0.552,0-1-0.448-1-1s0.448-1,1-1s1,0.448,1,1S22.552,16,22,16z M26,22c-0.552,0-1-0.448-1-1	s0.448-1,1-1s1,0.448,1,1S26.552,22,26,22z M26,19c-0.552,0-1-0.448-1-1s0.448-1,1-1s1,0.448,1,1S26.552,19,26,19z M26,16	c-0.552,0-1-0.448-1-1s0.448-1,1-1s1,0.448,1,1S26.552,16,26,16z"/></svg>
