<svg width="24" height="24" viewBox="0 0 24 24" fill="none" xmlns="http://www.w3.org/2000/svg">
<path d="M21.2522 10.4431C17.3057 9.52659 6.59942 9.56109 2.75192 10.4431C2.50967 10.4986 2.28242 10.3051 2.29592 10.0568C2.38742 8.40309 2.62667 6.74559 3.01442 5.10009C3.18692 4.34259 3.79442 3.77259 4.55942 3.63009C5.96192 3.37509 7.40942 3.18759 8.85692 3.06759C9.84692 3.00009 10.7244 3.68259 10.9044 4.66509C10.9869 5.09259 11.0694 5.52759 11.1669 5.96259C14.0169 5.91759 16.9119 6.06009 19.7919 6.36009C20.6844 6.45009 21.4119 7.15509 21.5244 8.04009C21.6084 8.71209 21.6729 9.38409 21.7074 10.0598C21.7194 10.3066 21.4929 10.4986 21.2522 10.4431ZM21.2289 11.9926C15.7097 11.0041 8.28992 11.0041 2.77067 11.9926C1.99067 12.1328 1.47842 12.8626 1.60517 13.6561C2.20442 17.4293 3.46367 19.3568 4.15967 20.1691C4.42517 20.4811 4.77467 20.7076 5.16767 20.8238C7.24367 21.4403 9.62117 21.7478 11.9994 21.7478C14.3777 21.7478 16.7559 21.4396 18.8304 20.8238C19.2234 20.7076 19.5729 20.4811 19.8384 20.1698C20.5359 19.3568 21.7944 17.4301 22.3937 13.6561C22.5204 12.8626 22.0089 12.1328 21.2289 11.9926Z" fill="white"/>
</svg>
