<svg width="24" height="24" viewBox="0 0 24 24" fill="none" xmlns="http://www.w3.org/2000/svg">
<path d="M21.3351 8.68723C21.2001 7.62448 20.3923 6.53398 19.2223 5.83948C18.1536 5.21548 17.1073 4.58398 16.0971 3.97423C15.0418 3.33673 14.0248 2.72398 13.0633 2.16673C12.4378 1.80373 11.7201 1.79923 11.0938 2.15173C10.0371 2.74723 8.91585 3.41323 7.74885 4.10473C6.7926 4.67323 5.8056 5.25973 4.7931 5.84323C3.6141 6.53323 2.7981 7.62823 2.6631 8.70223C2.30385 11.595 2.4636 14.529 3.1416 17.4352C3.5181 18.9187 5.08185 20.5042 6.5706 20.9025C8.3721 21.3465 10.1856 21.5685 11.9998 21.5685C13.8141 21.5685 15.6276 21.3465 17.4291 20.9025C17.4336 20.9017 17.4388 20.9002 17.4433 20.8987C18.9186 20.5042 20.4823 18.918 20.8618 17.421C21.5368 14.5245 21.6966 11.5867 21.3351 8.68723ZM15.0861 18.9772C15.0058 19.488 14.6098 19.902 14.0953 19.9537C12.7033 20.0947 11.3098 20.0955 9.9201 19.9567C9.4056 19.905 9.00885 19.491 8.9286 18.9802C8.68485 17.4285 8.7486 15.8767 9.11985 14.3242C9.23535 13.8435 9.6051 13.4587 10.0701 13.2892C11.3616 12.8182 12.6523 12.8182 13.9438 13.2892C14.4088 13.4587 14.7786 13.8435 14.8941 14.3242C15.2661 15.8752 15.3298 17.4262 15.0861 18.9772Z" fill="white"/>
</svg>
