<svg width="24" height="24" viewBox="0 0 24 24" fill="none" xmlns="http://www.w3.org/2000/svg">
<path d="M23.1966 7.94926C22.8928 7.28476 22.1488 6.89176 21.4401 7.06876C20.9023 7.20301 20.3263 7.51501 19.7241 7.92076C19.4526 8.10376 19.3326 8.43676 19.4188 8.75251C20.0076 10.9148 20.0076 13.0853 19.4188 15.2475C19.3326 15.5633 19.4526 15.897 19.7241 16.0793C20.3271 16.485 20.9031 16.797 21.4408 16.9313C22.1496 17.1083 22.8936 16.7145 23.1973 16.05C24.2383 13.77 24.2383 10.23 23.1966 7.94926ZM3.70031 5.92126C7.85306 4.34851 12.0058 4.34851 16.1586 5.92126C16.5253 6.06001 16.8396 6.34051 17.0218 6.70051C18.8046 10.2338 18.8046 13.767 17.0218 17.2995C16.8403 17.6595 16.5261 17.94 16.1586 18.0788C12.0058 19.6515 7.85306 19.6515 3.70031 18.0788C3.33356 17.94 3.01931 17.6595 2.83706 17.2995C1.05431 13.7663 1.05431 10.2338 2.83706 6.70051C3.01931 6.34051 3.33356 6.06001 3.70031 5.92126Z" fill="white"/>
</svg>
