<svg width="28" height="28" viewBox="0 0 28 28" fill="none" xmlns="http://www.w3.org/2000/svg">
<path d="M11.9181 19.4434C11.5733 19.823 11.3244 20.2798 11.1925 20.7754C11.0605 21.271 11.0493 21.791 11.1597 22.2918C7.4202 21.7639 5.25 19.1255 5.25 16.5527V15.8235C5.25 15.2433 5.48049 14.6868 5.89076 14.2766C6.30104 13.8663 6.85749 13.6358 7.4377 13.6358H16.2221C16.2512 14.3402 16.5429 15.0228 17.0709 15.5391L17.8264 16.2771C17.6765 16.9244 17.3102 17.5012 16.7879 17.912L15.643 17.6408C15.1172 17.5172 14.5677 17.537 14.0521 17.6981C13.5365 17.8592 13.0735 18.1557 12.7115 18.5567L11.9181 19.4434ZM12.5423 4.15576C13.6061 4.15576 14.6262 4.57833 15.3784 5.33049C16.1306 6.08266 16.5531 7.10282 16.5531 8.16655C16.5531 9.23028 16.1306 10.2504 15.3784 11.0026C14.6262 11.7548 13.6061 12.1773 12.5423 12.1773C11.4786 12.1773 10.4585 11.7548 9.70629 11.0026C8.95412 10.2504 8.53155 9.23028 8.53155 8.16655C8.53155 7.10282 8.95412 6.08266 9.70629 5.33049C10.4585 4.57833 11.4786 4.15576 12.5423 4.15576ZM17.7695 13.0247L18.1822 11.9309C18.5585 10.9391 19.7311 10.4491 20.72 10.8706L21.2859 11.1127C21.9757 11.4073 22.5474 11.9411 22.667 12.6586C23.3335 16.633 19.8843 22.286 15.9143 23.7284C15.1968 23.988 14.4208 23.7867 13.8068 23.3696L13.3022 23.0269C13.095 22.8873 12.9206 22.7045 12.7909 22.491C12.6613 22.2775 12.5795 22.0384 12.5512 21.7902C12.5229 21.542 12.5488 21.2906 12.6271 21.0534C12.7054 20.8162 12.8342 20.5988 13.0047 20.4162L13.7995 19.5309C13.9862 19.3253 14.2244 19.1733 14.4895 19.0904C14.7547 19.0076 15.0371 18.9971 15.3076 19.0599L17.0942 19.4828C18.5109 18.598 19.2703 17.3534 19.3723 15.7491L18.0918 14.4948C17.9006 14.3079 17.7681 14.0692 17.7109 13.808C17.6536 13.5467 17.674 13.2745 17.7695 13.0247Z" fill="white"/>
</svg>
