<svg width="24" height="24" viewBox="0 0 24 24" fill="none" xmlns="http://www.w3.org/2000/svg">
<path d="M11.9994 3C8.65067 3 5.74892 4.11975 3.82892 6.153C1.57892 8.5365 1.00067 11.5042 2.10992 14.9752C2.67992 16.7572 3.80942 19.263 5.95667 21.0795C6.12617 21.2213 6.33467 21.2917 6.54317 21.2917C6.76067 21.2917 6.97817 21.2145 7.14842 21.06C7.63667 20.6168 8.11442 19.9823 8.59967 19.1302C9.76442 19.3792 10.8819 19.5 11.9994 19.5C17.9687 19.5 22.4702 15.9053 22.4702 11.139C22.4702 6.49875 17.9687 3 11.9994 3ZM8.62442 12.75C8.00342 12.75 7.49942 12.246 7.49942 11.625C7.49942 11.004 8.00342 10.5 8.62442 10.5C9.24542 10.5 9.74942 11.004 9.74942 11.625C9.74942 12.246 9.24542 12.75 8.62442 12.75ZM12.3744 12.75C11.7534 12.75 11.2494 12.246 11.2494 11.625C11.2494 11.004 11.7534 10.5 12.3744 10.5C12.9954 10.5 13.4994 11.004 13.4994 11.625C13.4994 12.246 12.9954 12.75 12.3744 12.75ZM16.1244 12.75C15.5034 12.75 14.9994 12.246 14.9994 11.625C14.9994 11.004 15.5034 10.5 16.1244 10.5C16.7454 10.5 17.2494 11.004 17.2494 11.625C17.2494 12.246 16.7454 12.75 16.1244 12.75Z" fill="white"/>
</svg>
