<svg width="28" height="28" viewBox="0 0 28 28" fill="none" xmlns="http://www.w3.org/2000/svg">
<path d="M21.7601 18.2064C20.4648 17.0975 19.1466 16.4237 17.8676 17.5326L17.1021 18.1999C16.5428 18.6873 15.5026 20.9574 11.4825 16.3288C7.46232 11.7101 9.85347 10.9905 10.4161 10.5096L11.1848 9.83905C12.4572 8.73016 11.9764 7.33341 11.0572 5.89415L10.5044 5.02404C9.58197 3.59132 8.57448 2.64925 7.29877 3.75487L6.60857 4.36002C6.04268 4.7689 4.46603 6.10676 4.08331 8.64511C3.62209 11.6905 5.07772 15.1807 8.40439 19.0078C11.7278 22.8383 14.9858 24.7616 18.0671 24.7289C20.6284 24.6995 22.1788 23.3256 22.663 22.8252L23.3531 22.22C24.6289 21.1144 23.8373 19.9859 22.5387 18.877L21.7601 18.2064Z" fill="white"/>
</svg>
