<svg width="32" height="32" viewBox="0 0 32 32" fill="none" xmlns="http://www.w3.org/2000/svg">
  <rect width="32" height="32" rx="6" fill="#2a1051"/>
  <g transform="translate(6,6) scale(1.0)">
    <path d="M3.05 1.44C4.23 0.45 5.16 1.3 6.01 2.59L6.52 3.37C7.37 4.67 7.81 5.93 6.64 6.93L5.93 7.53C5.41 7.96 3.2 8.61 6.92 12.77C10.63 16.94 11.59 15.0 12.11 14.56L12.81 13.96C14.0 12.96 15.21 13.57 16.41 14.57L17.13 15.17C18.33 16.17 19.06 17.19 17.88 18.18L17.25 18.73C16.8 19.18 15.37 20.41 13.01 20.44C10.17 20.47 7.17 18.74 4.1 15.29C1.03 11.85 -0.31 8.71 0.12 5.97C0.47 3.69 1.93 2.49 2.45 2.13L3.05 1.44Z" fill="white"/>
  </g>
</svg>
